<?xml version="1.0" encoding="UTF-8" standalone="no"?>
<!-- Created with Inkscape (http://www.inkscape.org/) -->

<svg
   xmlns:dc="http://purl.org/dc/elements/1.1/"
   xmlns:cc="http://creativecommons.org/ns#"
   xmlns:rdf="http://www.w3.org/1999/02/22-rdf-syntax-ns#"
   xmlns:svg="http://www.w3.org/2000/svg"
   xmlns="http://www.w3.org/2000/svg"
   xmlns:sodipodi="http://sodipodi.sourceforge.net/DTD/sodipodi-0.dtd"
   xmlns:inkscape="http://www.inkscape.org/namespaces/inkscape"
   width="1578"
   height="1582"
   id="svg2"
   inkscape:label="Pozadí"
   version="1.1"
   inkscape:version="0.48.1 "
   sodipodi:docname="Nový dokument 5">
  <defs
     id="defs3812" />
  <sodipodi:namedview
     id="base"
     pagecolor="#ffffff"
     bordercolor="#666666"
     borderopacity="1.0"
     inkscape:pageopacity="0.0"
     inkscape:pageshadow="2"
     inkscape:zoom="0.35"
     inkscape:cx="788.40624"
     inkscape:cy="865.56604"
     inkscape:document-units="px"
     inkscape:current-layer="layer5"
     showgrid="false"
     fit-margin-top="0"
     fit-margin-left="0"
     fit-margin-right="0"
     fit-margin-bottom="0"
     inkscape:window-width="1280"
     inkscape:window-height="1002"
     inkscape:window-x="1272"
     inkscape:window-y="18"
     inkscape:window-maximized="1" />
  <metadata
     id="metadata3815">
    <rdf:RDF>
      <cc:Work
         rdf:about="">
        <dc:format>image/svg+xml</dc:format>
        <dc:type
           rdf:resource="http://purl.org/dc/dcmitype/StillImage" />
        <dc:title></dc:title>
      </cc:Work>
    </rdf:RDF>
  </metadata>
  <g
     inkscape:groupmode="layer"
     id="layer5"
     inkscape:label="Stit"
     style="display:inline">
    <path
       style="fill:#06448e;fill-opacity:1;stroke:#000000;stroke-width:8;stroke-linecap:butt;stroke-linejoin:miter;stroke-miterlimit:4;stroke-opacity:1;stroke-dasharray:none"
       d="M 0,2 1574.2857,4.8571429 1457.1429,982 C 1348.231,1668.5777 297.07005,1879.8797 102.85714,981.30674 z"
       id="path4394"
       inkscape:connector-curvature="0"
       sodipodi:nodetypes="ccccc" />
  </g>
  <g
     inkscape:groupmode="layer"
     id="layer4"
     inkscape:label="obr"
     style="display:inline">
    <path
       sodipodi:type="star"
       style="fill:#f4f141;fill-opacity:1;stroke:#000000;stroke-opacity:1;display:inline"
       id="path3764"
       sodipodi:sides="8"
       sodipodi:cx="611.42859"
       sodipodi:cy="865"
       sodipodi:r1="231.71619"
       sodipodi:r2="88.400078"
       sodipodi:arg1="0.0050370603"
       sodipodi:arg2="0.43045295"
       inkscape:flatsided="false"
       inkscape:rounded="0"
       inkscape:randomized="0"
       d="M 843.14184,866.16716 691.76453,901.8878 774.44929,1029.6713 642.15106,947.88971 610.26143,1096.7132 574.54079,945.33594 446.75727,1028.0207 528.53888,895.72247 379.71534,863.83284 531.09265,828.1122 448.40789,700.32868 580.70611,782.11029 612.59575,633.28675 648.31639,784.66406 776.09991,701.9793 694.31829,834.27753 z"
       transform="matrix(0.9649827,0,0,0.92403801,-162.62268,167.82877)" />
    <path
       sodipodi:type="star"
       style="fill:#f4f141;fill-opacity:1;stroke:#000000;stroke-opacity:1;display:inline"
       id="path3764-0"
       sodipodi:sides="8"
       sodipodi:cx="611.42859"
       sodipodi:cy="865"
       sodipodi:r1="231.71619"
       sodipodi:r2="88.400078"
       sodipodi:arg1="0.0050370603"
       sodipodi:arg2="0.43045295"
       inkscape:flatsided="false"
       inkscape:rounded="0"
       inkscape:randomized="0"
       d="M 843.14184,866.16716 691.76453,901.8878 774.44929,1029.6713 642.15106,947.88971 610.26143,1096.7132 574.54079,945.33594 446.75727,1028.0207 528.53888,895.72247 379.71534,863.83284 531.09265,828.1122 448.40789,700.32868 580.70611,782.11029 612.59575,633.28675 648.31639,784.66406 776.09991,701.9793 694.31829,834.27753 z"
       transform="matrix(0.9649827,0,0,0.92403801,542.52719,169.14622)" />
    <g
       transform="translate(-350.80847,2.8359057)"
       style="display:inline"
       id="g4338">
      <path
         sodipodi:nodetypes="ccccc"
         inkscape:connector-curvature="0"
         id="path3784"
         d="m 1070.7617,1049.8222 120.2082,2.0203 c -50.4855,127.5443 -47.1479,257.998 2.0203,390.929 l -117.1777,1.0102 c 42.9535,-133.7326 51.4448,-265.6025 -5.0508,-393.9595 z"
         style="fill:#fcfffe;fill-opacity:1;stroke:none" />
      <path
         sodipodi:nodetypes="ccccc"
         inkscape:connector-curvature="0"
         id="path3786"
         d="m 937.42156,1186.1928 c 120.76854,44.0107 252.45894,57.639 388.90874,2.0203 l 3.0304,119.198 c -134.7857,-52.2201 -264.2037,-41.8179 -390.92899,0 z"
         style="fill:#fcfffe;fill-opacity:1;stroke:none" />
    </g>
    <g
       transform="matrix(1.0611689,0,0,1.0528348,-403.76586,-52.085971)"
       style="display:inline"
       id="g4342">
      <path
         inkscape:connector-curvature="0"
         id="path3788"
         d="m 1125,259.28571 c 60.9661,-85.01802 122.8832,-125.83398 180.1691,-135.92506 188.1382,-33.141106 305.0938,182.76811 246.9862,335.12021 -8.7762,23.01011 -15.7966,48.22573 -27.732,73.0411 -61.6526,128.18507 -194.8307,265.22323 -395.0728,354.65553 C 1019.1231,853.57866 861.91394,725.60258 768.88049,593.77373 747.32469,563.22905 731.32961,531.44223 715.93148,502.65763 627.02745,336.46421 757.59261,32.448762 983.11014,140.05211 1026.2383,160.63024 1075.5982,194.56212 1125,259.28571 z"
         style="fill:#fcfffe;fill-opacity:1;stroke:#000000;stroke-width:1px;stroke-linecap:butt;stroke-linejoin:miter;stroke-opacity:1" />
      <path
         sodipodi:nodetypes="csc"
         inkscape:connector-curvature="0"
         id="path3790"
         d="M 1058.5714,245 C 876.21388,65.382872 751.87432,232.97837 739.85824,325.58963 700.33779,630.18467 1090.1532,818.70784 1128.5714,843.57143"
         style="fill:none;stroke:#000000;stroke-width:1px;stroke-linecap:butt;stroke-linejoin:miter;stroke-opacity:1" />
      <path
         sodipodi:nodetypes="cssc"
         inkscape:connector-curvature="0"
         id="path3792"
         d="m 1191.4286,245 c 53.3237,-52.11662 97.166,-78.58853 134.0119,-77.73075 114.2294,2.65925 160.769,69.66254 179.831,131.68923 13.7905,44.87328 11.5801,95.49132 0.4428,147.47009"
         style="fill:none;stroke:#000000;stroke-width:1px;stroke-linecap:butt;stroke-linejoin:miter;stroke-opacity:1" />
      <path
         sodipodi:nodetypes="cccccccc"
         inkscape:connector-curvature="0"
         id="path3794"
         d="m 1234.19,831.05284 c -70.4469,-113.07628 -165.5868,-219.5039 -408.47571,-250.33855 260.09041,-71.46316 392.05581,22.14988 490.00001,130 C 1222.4547,560.9293 1045.1495,483.76282 824.28572,447.85714 1117.5033,350.43674 1285.0975,483.48869 1390.3466,588.69398 1339.0239,513.61167 1219.1178,332.76153 832.19362,319.70414 1204.305,228.35421 1419.6867,337.67053 1519.2857,540.71428 1454.8828,666.4176 1347.9825,763.58502 1234.19,831.05284 z"
         style="fill:#b3222a;fill-opacity:1;stroke:none" />
    </g>
  </g>
</svg>
